<svg xmlns="http://www.w3.org/2000/svg" xmlns:xlink="http://www.w3.org/1999/xlink" contentStyleType="text/css" height="610px" preserveAspectRatio="none" style="width:581px;height:610px;background:#FFFFFF;" version="1.1" viewBox="0 0 581 610" width="581px" zoomAndPan="magnify"><title>Pipeline de Implanta&#231;&#227;o &#8212; Fluxo de Dados</title><defs/><g><text fill="#1A1A1A" font-family="sans-serif" font-size="14" font-weight="bold" lengthAdjust="spacing" textLength="335.4668" x="121.5329" y="32.9951">Pipeline de Implanta&#231;&#227;o &#8212; Fluxo de Dados</text><ellipse cx="220.4816" cy="57.2969" fill="#222222" rx="10" ry="10" style="stroke:#222222;stroke-width:1.0;"/><rect fill="#BBDEFB" height="65.3984" rx="12.5" ry="12.5" style="stroke:#181818;stroke-width:1.5;" width="144.0078" x="148.4777" y="87.2969"/><text fill="#1A1A1A" font-family="sans-serif" font-size="13" font-weight="bold" lengthAdjust="spacing" textLength="31.9414" x="158.4777" y="109.3638">raw/</text><text fill="#1A1A1A" font-family="sans-serif" font-size="13" lengthAdjust="spacing" textLength="124.0078" x="158.4777" y="124.4966">arquivos do cliente</text><text fill="#1A1A1A" font-family="sans-serif" font-size="13" lengthAdjust="spacing" textLength="75.4102" x="158.4777" y="139.6294">(Excel/CSV)</text><path d="M315.8148,170.1289 L315.8148,186.2617 L295.8148,190.2617 L315.8148,194.2617 L315.8148,210.3945 A0,0 0 0 0 315.8148,210.3945 L536.3534,210.3945 A0,0 0 0 0 536.3534,210.3945 L536.3534,180.1289 L526.3534,170.1289 L315.8148,170.1289 A0,0 0 0 0 315.8148,170.1289 " fill="#FFF9C4" style="stroke:#F57F17;stroke-width:0.5;"/><path d="M526.3534,170.1289 L526.3534,180.1289 L536.3534,180.1289 L526.3534,170.1289 " fill="#FFF9C4" style="stroke:#F57F17;stroke-width:0.5;"/><text fill="#1A1A1A" font-family="sans-serif" font-size="13" lengthAdjust="spacing" textLength="149.7285" x="321.8148" y="187.1958">config/diagnostico.json</text><text fill="#1A1A1A" font-family="sans-serif" font-size="13" lengthAdjust="spacing" textLength="199.5386" x="321.8148" y="202.3286">config/diagnostico_resumo.md</text><rect fill="#C8E6C9" height="35.1328" rx="12.5" ry="12.5" style="stroke:#181818;stroke-width:1.5;" width="150.6665" x="145.1483" y="172.6953"/><text fill="#1A1A1A" font-family="sans-serif" font-size="13" font-weight="bold" lengthAdjust="spacing" textLength="86.5566" x="155.1483" y="194.7622">Diagn&#243;stico</text><text fill="#1A1A1A" font-family="sans-serif" font-size="13" lengthAdjust="spacing" textLength="8.2646" x="241.705" y="194.7622">&#160;&#160;</text><text fill="#1A1A1A" font-family="sans-serif" font-size="13" font-style="italic" lengthAdjust="spacing" textLength="35.8452" x="249.9696" y="194.7622">(LLM)</text><path d="M320.2201,227.8281 L320.2201,243.9609 L300.2201,247.9609 L320.2201,251.9609 L320.2201,268.0938 A0,0 0 0 0 320.2201,268.0938 L569.5326,268.0938 A0,0 0 0 0 569.5326,268.0938 L569.5326,237.8281 L559.5326,227.8281 L320.2201,227.8281 A0,0 0 0 0 320.2201,227.8281 " fill="#FFF9C4" style="stroke:#F57F17;stroke-width:0.5;"/><path d="M559.5326,227.8281 L559.5326,237.8281 L569.5326,237.8281 L559.5326,227.8281 " fill="#FFF9C4" style="stroke:#F57F17;stroke-width:0.5;"/><text fill="#1A1A1A" font-family="sans-serif" font-size="13" lengthAdjust="spacing" textLength="161.6685" x="326.2201" y="244.895">config/mapeamento.json</text><text fill="#1A1A1A" font-family="sans-serif" font-size="13" font-style="italic" lengthAdjust="spacing" textLength="228.3125" x="326.2201" y="260.0278">(travar manualmente ap&#243;s revisar)</text><rect fill="#C8E6C9" height="35.1328" rx="12.5" ry="12.5" style="stroke:#181818;stroke-width:1.5;" width="159.4771" x="140.743" y="230.3945"/><text fill="#1A1A1A" font-family="sans-serif" font-size="13" font-weight="bold" lengthAdjust="spacing" textLength="95.3672" x="150.743" y="252.4614">Mapeamento</text><text fill="#1A1A1A" font-family="sans-serif" font-size="13" lengthAdjust="spacing" textLength="8.2646" x="246.1102" y="252.4614">&#160;&#160;</text><text fill="#1A1A1A" font-family="sans-serif" font-size="13" font-style="italic" lengthAdjust="spacing" textLength="35.8452" x="254.3749" y="252.4614">(LLM)</text><path d="M362.67,285.5273 L362.67,316.793 L342.67,320.793 L362.67,324.793 L362.67,356.0586 A0,0 0 0 0 362.67,356.0586 L556.631,356.0586 A0,0 0 0 0 556.631,356.0586 L556.631,295.5273 L546.631,285.5273 L362.67,285.5273 A0,0 0 0 0 362.67,285.5273 " fill="#FFF9C4" style="stroke:#F57F17;stroke-width:0.5;"/><path d="M546.631,285.5273 L546.631,295.5273 L556.631,295.5273 L546.631,285.5273 " fill="#FFF9C4" style="stroke:#F57F17;stroke-width:0.5;"/><text fill="#1A1A1A" font-family="sans-serif" font-size="13" lengthAdjust="spacing" textLength="116.0415" x="368.67" y="302.5942">staging/01_areas/</text><text fill="#1A1A1A" font-family="sans-serif" font-size="13" lengthAdjust="spacing" textLength="172.5103" x="368.67" y="317.7271">staging/02_colaboradores/</text><text fill="#1A1A1A" font-family="sans-serif" font-size="13" lengthAdjust="spacing" textLength="12.397" x="368.67" y="332.8599">...</text><text fill="#1A1A1A" font-family="sans-serif" font-size="13" lengthAdjust="spacing" textLength="172.9609" x="368.67" y="347.9927">staging/07_curva_alcance/</text><rect fill="#C8E6C9" height="65.3984" rx="12.5" ry="12.5" style="stroke:#181818;stroke-width:1.5;" width="244.377" x="98.2931" y="288.0938"/><text fill="#1A1A1A" font-family="sans-serif" font-size="13" font-weight="bold" lengthAdjust="spacing" textLength="117.5522" x="108.2931" y="310.1606">Transforma&#231;&#245;es</text><text fill="#1A1A1A" font-family="sans-serif" font-size="13" lengthAdjust="spacing" textLength="224.377" x="108.2931" y="325.2935">areas, colaboradores, indicadores,</text><text fill="#1A1A1A" font-family="sans-serif" font-size="13" lengthAdjust="spacing" textLength="197.3359" x="108.2931" y="340.4263">metas, curva_alcance, valores</text><path d="M308.1532,381.0586 L308.1532,389.625 L288.1532,393.625 L308.1532,397.625 L308.1532,406.1914 A0,0 0 0 0 308.1532,406.1914 L543.7865,406.1914 A0,0 0 0 0 543.7865,406.1914 L543.7865,391.0586 L533.7865,381.0586 L308.1532,381.0586 A0,0 0 0 0 308.1532,381.0586 " fill="#FFF9C4" style="stroke:#F57F17;stroke-width:0.5;"/><path d="M533.7865,381.0586 L533.7865,391.0586 L543.7865,391.0586 L533.7865,381.0586 " fill="#FFF9C4" style="stroke:#F57F17;stroke-width:0.5;"/><text fill="#1A1A1A" font-family="sans-serif" font-size="13" lengthAdjust="spacing" textLength="214.6333" x="314.1532" y="398.1255">relatorios/relatorio_validacao.md</text><rect fill="#C8E6C9" height="35.1328" rx="12.5" ry="12.5" style="stroke:#181818;stroke-width:1.5;" width="135.3433" x="152.8099" y="376.0586"/><text fill="#1A1A1A" font-family="sans-serif" font-size="13" font-weight="bold" lengthAdjust="spacing" textLength="71.2334" x="162.8099" y="398.1255">Valida&#231;&#227;o</text><text fill="#1A1A1A" font-family="sans-serif" font-size="13" lengthAdjust="spacing" textLength="8.2646" x="234.0433" y="398.1255">&#160;&#160;</text><text fill="#1A1A1A" font-family="sans-serif" font-size="13" font-style="italic" lengthAdjust="spacing" textLength="35.8452" x="242.308" y="398.1255">(LLM)</text><polygon fill="#F1F1F1" points="186.3407,431.1914,254.6224,431.1914,266.6224,443.1914,254.6224,455.1914,186.3407,455.1914,174.3407,443.1914,186.3407,431.1914" style="stroke:#181818;stroke-width:1.5;"/><text fill="#1A1A1A" font-family="sans-serif" font-size="13" lengthAdjust="spacing" textLength="68.2817" x="186.3407" y="447.6919">aprovado?</text><text fill="#424242" font-family="sans-serif" font-size="11" lengthAdjust="spacing" textLength="19.5024" x="154.8383" y="440.5972">sim</text><text fill="#424242" font-family="sans-serif" font-size="11" lengthAdjust="spacing" textLength="57.9434" x="266.6224" y="440.5972">bloqueado</text><rect fill="#FFCC80" height="50.2656" rx="12.5" ry="12.5" style="stroke:#181818;stroke-width:1.5;" width="224.9214" x="11" y="465.1914"/><text fill="#1A1A1A" font-family="sans-serif" font-size="13" font-weight="bold" lengthAdjust="spacing" textLength="204.9214" x="21" y="487.2583">output/&lt;data&gt;/Import_*.csv</text><text fill="#1A1A1A" font-family="sans-serif" font-size="13" lengthAdjust="spacing" textLength="143.6411" x="21" y="502.3911">prontos para importar</text><rect fill="#EF9A9A" height="50.2656" rx="12.5" ry="12.5" style="stroke:#181818;stroke-width:1.5;" width="123.1621" x="255.9214" y="465.1914"/><text fill="#1A1A1A" font-family="sans-serif" font-size="13" lengthAdjust="spacing" textLength="103.1621" x="265.9214" y="487.2583">revisar achados</text><text fill="#1A1A1A" font-family="sans-serif" font-size="13" lengthAdjust="spacing" textLength="75.207" x="265.9214" y="502.3911">no relat&#243;rio</text><ellipse cx="317.5024" cy="546.457" fill="none" rx="11" ry="11" style="stroke:#222222;stroke-width:1.0;"/><ellipse cx="317.5024" cy="546.457" fill="#222222" rx="6" ry="6" style="stroke:#222222;stroke-width:1.0;"/><ellipse cx="220.4816" cy="588.457" fill="none" rx="11" ry="11" style="stroke:#222222;stroke-width:1.0;"/><ellipse cx="220.4816" cy="588.457" fill="#222222" rx="6" ry="6" style="stroke:#222222;stroke-width:1.0;"/><line style="stroke:#424242;stroke-width:1.5;" x1="220.4816" x2="220.4816" y1="67.2969" y2="87.2969"/><polygon fill="#424242" points="216.4816,77.2969,220.4816,87.2969,224.4816,77.2969,220.4816,81.2969" style="stroke:#424242;stroke-width:1.0;"/><line style="stroke:#424242;stroke-width:1.5;" x1="220.4816" x2="220.4816" y1="152.6953" y2="172.6953"/><polygon fill="#424242" points="216.4816,162.6953,220.4816,172.6953,224.4816,162.6953,220.4816,166.6953" style="stroke:#424242;stroke-width:1.0;"/><line style="stroke:#424242;stroke-width:1.5;" x1="220.4816" x2="220.4816" y1="207.8281" y2="230.3945"/><polygon fill="#424242" points="216.4816,220.3945,220.4816,230.3945,224.4816,220.3945,220.4816,224.3945" style="stroke:#424242;stroke-width:1.0;"/><line style="stroke:#424242;stroke-width:1.5;" x1="220.4816" x2="220.4816" y1="265.5273" y2="288.0938"/><polygon fill="#424242" points="216.4816,278.0938,220.4816,288.0938,224.4816,278.0938,220.4816,282.0938" style="stroke:#424242;stroke-width:1.0;"/><line style="stroke:#424242;stroke-width:1.5;" x1="220.4816" x2="220.4816" y1="353.4922" y2="376.0586"/><polygon fill="#424242" points="216.4816,366.0586,220.4816,376.0586,224.4816,366.0586,220.4816,370.0586" style="stroke:#424242;stroke-width:1.0;"/><line style="stroke:#424242;stroke-width:1.5;" x1="317.5024" x2="317.5024" y1="515.457" y2="535.457"/><polygon fill="#424242" points="313.5024,525.457,317.5024,535.457,321.5024,525.457,317.5024,529.457" style="stroke:#424242;stroke-width:1.0;"/><line style="stroke:#424242;stroke-width:1.5;" x1="174.3407" x2="123.4607" y1="443.1914" y2="443.1914"/><line style="stroke:#424242;stroke-width:1.5;" x1="123.4607" x2="123.4607" y1="443.1914" y2="465.1914"/><polygon fill="#424242" points="119.4607,455.1914,123.4607,465.1914,127.4607,455.1914,123.4607,459.1914" style="stroke:#424242;stroke-width:1.0;"/><line style="stroke:#424242;stroke-width:1.5;" x1="266.6224" x2="317.5024" y1="443.1914" y2="443.1914"/><line style="stroke:#424242;stroke-width:1.5;" x1="317.5024" x2="317.5024" y1="443.1914" y2="465.1914"/><polygon fill="#424242" points="313.5024,455.1914,317.5024,465.1914,321.5024,455.1914,317.5024,459.1914" style="stroke:#424242;stroke-width:1.0;"/><line style="stroke:#424242;stroke-width:1.5;" x1="123.4607" x2="123.4607" y1="515.457" y2="562.457"/><line style="stroke:#424242;stroke-width:1.5;" x1="123.4607" x2="220.4816" y1="562.457" y2="562.457"/><line style="stroke:#424242;stroke-width:1.5;" x1="220.4816" x2="220.4816" y1="562.457" y2="577.457"/><polygon fill="#424242" points="216.4816,567.457,220.4816,577.457,224.4816,567.457,220.4816,571.457" style="stroke:#424242;stroke-width:1.0;"/><line style="stroke:#424242;stroke-width:1.5;" x1="220.4816" x2="220.4816" y1="411.1914" y2="431.1914"/><polygon fill="#424242" points="216.4816,421.1914,220.4816,431.1914,224.4816,421.1914,220.4816,425.1914" style="stroke:#424242;stroke-width:1.0;"/><!--SRC=[bLHTJjj047xtAKRY9R6GJIWKGgfMYPD8bQ2g1EBL6jQJPCjwn-ok3VIfX-WD-j03e9uWD-b9kcj-P51QKU-BxU-R-RwPsLqddIBuB2jIKXCK11_BIg5skFwv_i7m-zjtcAlwXWCqnO9j5DbBgIiqMC85YikbuLeN6Iisi3LldmvZIWkibPkpTW-KmJYi3cKid6oaktqjvrH-9HYysO1Es1HapbPIN6go5WR9_WRMs1Y-xeZjxORL8NvYH_yo4_39Xig7sTvBLcleaR5_C1yST0q58yzDHDQXSL6qDPbCP_F9KHmRl4xZE49pLSk6BHGCGadIZgBUx4QGIhFJy_x8XsI7ixVPq8TC9Ixr-iuwAJYE0TAqTtnyqa_JKQIzAJ1okN9FZW44wuLSfaK8upOg-M9PRqHoGxOkEIcBY7G18LzN-WGhmjAx-n_XyYdeKTS7EeCD6YXHrwW2I82LBmeCDTAYyLatEZWpgEs2JHasy2-oRUy8xRPNKtZ1nkzXNyCsI5r8yV0HbUHQIcqQp549r8AseK4LuB-uzwDQIhrCTmPvgv1s_-tcp-G2bYH9bt6GFrFRNCqvAbdS7yNNDDIGGiT6iasVNlEcpI7mnT3a0dfO6MwymmzzS2lIqBEoxFiyFcEM7Uvu0roxgdRfkm8Tla_ztS36vN4YRECR2-3Z_TWiX0qDiaNHZ29Ibg1teVYg9f- -JJcR3yV3yT73-035ghrDmDkvzxs-ysv7ROku2aRb8fm7__u7]--></g></svg>