<svg xmlns="http://www.w3.org/2000/svg" xmlns:xlink="http://www.w3.org/1999/xlink" contentStyleType="text/css" height="972px" preserveAspectRatio="none" style="width:1151px;height:972px;background:#FFFFFF;" version="1.1" viewBox="0 0 1151 972" width="1151px" zoomAndPan="magnify"><title>Fluxo HITL &#8212; pausa e retomada ass&#237;ncrona</title><defs/><g><text fill="#000000" font-family="sans-serif" font-size="14" font-weight="bold" lengthAdjust="spacing" textLength="339.6572" x="407.4241" y="27.9951">Fluxo HITL &#8212; pausa e retomada ass&#237;ncrona</text><line style="stroke:#181818;stroke-width:0.5;stroke-dasharray:5.0,5.0;" x1="46" x2="46" y1="118.5938" y2="891.4453"/><line style="stroke:#181818;stroke-width:0.5;stroke-dasharray:5.0,5.0;" x1="356.8501" x2="356.8501" y1="118.5938" y2="891.4453"/><line style="stroke:#181818;stroke-width:0.5;stroke-dasharray:5.0,5.0;" x1="611.8784" x2="611.8784" y1="118.5938" y2="891.4453"/><line style="stroke:#181818;stroke-width:0.5;stroke-dasharray:5.0,5.0;" x1="864.4556" x2="864.4556" y1="118.5938" y2="891.4453"/><line style="stroke:#181818;stroke-width:0.5;stroke-dasharray:5.0,5.0;" x1="981.5435" x2="981.5435" y1="118.5938" y2="891.4453"/><line style="stroke:#181818;stroke-width:0.5;stroke-dasharray:5.0,5.0;" x1="1096.8667" x2="1096.8667" y1="118.5938" y2="891.4453"/><text fill="#000000" font-family="sans-serif" font-size="14" lengthAdjust="spacing" textLength="67.0811" x="10" y="115.292">Consultor</text><ellipse cx="46.5405" cy="50.7969" fill="#E2E2F0" rx="8" ry="8" style="stroke:#181818;stroke-width:0.5;"/><path d="M46.5405,58.7969 L46.5405,85.7969 M33.5405,66.7969 L59.5405,66.7969 M46.5405,85.7969 L33.5405,100.7969 M46.5405,85.7969 L59.5405,100.7969 " fill="none" style="stroke:#181818;stroke-width:0.5;"/><text fill="#000000" font-family="sans-serif" font-size="14" lengthAdjust="spacing" textLength="67.0811" x="10" y="903.4404">Consultor</text><ellipse cx="46.5405" cy="915.2422" fill="#E2E2F0" rx="8" ry="8" style="stroke:#181818;stroke-width:0.5;"/><path d="M46.5405,923.2422 L46.5405,950.2422 M33.5405,931.2422 L59.5405,931.2422 M46.5405,950.2422 L33.5405,965.2422 M46.5405,950.2422 L59.5405,965.2422 " fill="none" style="stroke:#181818;stroke-width:0.5;"/><rect fill="#E2E2F0" height="30.2969" rx="2.5" ry="2.5" style="stroke:#181818;stroke-width:0.5;" width="35.7041" x="339.8501" y="87.2969"/><text fill="#000000" font-family="sans-serif" font-size="14" lengthAdjust="spacing" textLength="21.7041" x="346.8501" y="107.292">CLI</text><rect fill="#E2E2F0" height="30.2969" rx="2.5" ry="2.5" style="stroke:#181818;stroke-width:0.5;" width="35.7041" x="339.8501" y="890.4453"/><text fill="#000000" font-family="sans-serif" font-size="14" lengthAdjust="spacing" textLength="21.7041" x="346.8501" y="910.4404">CLI</text><rect fill="#E2E2F0" height="30.2969" rx="2.5" ry="2.5" style="stroke:#181818;stroke-width:0.5;" width="64.7158" x="579.8784" y="87.2969"/><text fill="#000000" font-family="sans-serif" font-size="14" lengthAdjust="spacing" textLength="50.7158" x="586.8784" y="107.292">Runner</text><rect fill="#E2E2F0" height="30.2969" rx="2.5" ry="2.5" style="stroke:#181818;stroke-width:0.5;" width="64.7158" x="579.8784" y="890.4453"/><text fill="#000000" font-family="sans-serif" font-size="14" lengthAdjust="spacing" textLength="50.7158" x="586.8784" y="910.4404">Runner</text><rect fill="#E2E2F0" height="30.2969" rx="2.5" ry="2.5" style="stroke:#181818;stroke-width:0.5;" width="109.0879" x="810.4556" y="87.2969"/><text fill="#000000" font-family="sans-serif" font-size="14" lengthAdjust="spacing" textLength="95.0879" x="817.4556" y="107.292">RegistroTools</text><rect fill="#E2E2F0" height="30.2969" rx="2.5" ry="2.5" style="stroke:#181818;stroke-width:0.5;" width="109.0879" x="810.4556" y="890.4453"/><text fill="#000000" font-family="sans-serif" font-size="14" lengthAdjust="spacing" textLength="95.0879" x="817.4556" y="910.4404">RegistroTools</text><rect fill="#E2E2F0" height="30.2969" rx="2.5" ry="2.5" style="stroke:#181818;stroke-width:0.5;" width="104.3232" x="929.5435" y="87.2969"/><text fill="#000000" font-family="sans-serif" font-size="14" lengthAdjust="spacing" textLength="90.3232" x="936.5435" y="107.292">Provider LLM</text><rect fill="#E2E2F0" height="30.2969" rx="2.5" ry="2.5" style="stroke:#181818;stroke-width:0.5;" width="104.3232" x="929.5435" y="890.4453"/><text fill="#000000" font-family="sans-serif" font-size="14" lengthAdjust="spacing" textLength="90.3232" x="936.5435" y="910.4404">Provider LLM</text><text fill="#000000" font-family="sans-serif" font-size="14" lengthAdjust="spacing" textLength="100.6387" x="1043.8667" y="115.292">sessoes/&lt;id&gt;/</text><path d="M1079.186,66.2969 C1079.186,56.2969 1097.186,56.2969 1097.186,56.2969 C1097.186,56.2969 1115.186,56.2969 1115.186,66.2969 L1115.186,92.2969 C1115.186,102.2969 1097.186,102.2969 1097.186,102.2969 C1097.186,102.2969 1079.186,102.2969 1079.186,92.2969 L1079.186,66.2969 " fill="#E2E2F0" style="stroke:#181818;stroke-width:1.5;"/><path d="M1079.186,66.2969 C1079.186,76.2969 1097.186,76.2969 1097.186,76.2969 C1097.186,76.2969 1115.186,76.2969 1115.186,66.2969 " fill="none" style="stroke:#181818;stroke-width:1.5;"/><text fill="#000000" font-family="sans-serif" font-size="14" lengthAdjust="spacing" textLength="100.6387" x="1043.8667" y="903.4404">sessoes/&lt;id&gt;/</text><path d="M1079.186,916.7422 C1079.186,906.7422 1097.186,906.7422 1097.186,906.7422 C1097.186,906.7422 1115.186,906.7422 1115.186,916.7422 L1115.186,942.7422 C1115.186,952.7422 1097.186,952.7422 1097.186,952.7422 C1097.186,952.7422 1079.186,952.7422 1079.186,942.7422 L1079.186,916.7422 " fill="#E2E2F0" style="stroke:#181818;stroke-width:1.5;"/><path d="M1079.186,916.7422 C1079.186,926.7422 1097.186,926.7422 1097.186,926.7422 C1097.186,926.7422 1115.186,926.7422 1115.186,916.7422 " fill="none" style="stroke:#181818;stroke-width:1.5;"/><polygon fill="#181818" points="345.7021,145.7266,355.7021,149.7266,345.7021,153.7266,349.7021,149.7266" style="stroke:#181818;stroke-width:1.0;"/><line style="stroke:#181818;stroke-width:1.0;" x1="46.5405" x2="351.7021" y1="149.7266" y2="149.7266"/><text fill="#000000" font-family="sans-serif" font-size="13" lengthAdjust="spacing" textLength="183.2188" x="53.5405" y="144.6606">./implantacao mapear acme</text><polygon fill="#181818" points="600.2363,174.8594,610.2363,178.8594,600.2363,182.8594,604.2363,178.8594" style="stroke:#181818;stroke-width:1.0;"/><line style="stroke:#181818;stroke-width:1.0;" x1="357.7021" x2="606.2363" y1="178.8594" y2="178.8594"/><text fill="#000000" font-family="sans-serif" font-size="13" lengthAdjust="spacing" textLength="132.0757" x="364.7021" y="173.7935">executar_agente(...)</text><polygon fill="#181818" points="1085.186,203.9922,1095.186,207.9922,1085.186,211.9922,1089.186,207.9922" style="stroke:#181818;stroke-width:1.0;"/><line style="stroke:#181818;stroke-width:1.0;" x1="612.2363" x2="1091.186" y1="207.9922" y2="207.9922"/><text fill="#000000" font-family="sans-serif" font-size="13" lengthAdjust="spacing" textLength="72.4395" x="619.2363" y="202.9263">cria sess&#227;o</text><polygon fill="#181818" points="969.7051,233.125,979.7051,237.125,969.7051,241.125,973.7051,237.125" style="stroke:#181818;stroke-width:1.0;"/><line style="stroke:#181818;stroke-width:1.0;" x1="612.2363" x2="975.7051" y1="237.125" y2="237.125"/><text fill="#000000" font-family="sans-serif" font-size="13" lengthAdjust="spacing" textLength="157.5679" x="619.2363" y="232.0591">chat.completions.create</text><polygon fill="#181818" points="623.2363,262.2578,613.2363,266.2578,623.2363,270.2578,619.2363,266.2578" style="stroke:#181818;stroke-width:1.0;"/><line style="stroke:#181818;stroke-width:1.0;stroke-dasharray:2.0,2.0;" x1="617.2363" x2="980.7051" y1="266.2578" y2="266.2578"/><text fill="#000000" font-family="sans-serif" font-size="13" lengthAdjust="spacing" textLength="229.9121" x="629.2363" y="261.1919">tool_calls (incl. perguntar_humano)</text><polygon fill="#181818" points="852.9995,291.3906,862.9995,295.3906,852.9995,299.3906,856.9995,295.3906" style="stroke:#181818;stroke-width:1.0;"/><line style="stroke:#181818;stroke-width:1.0;" x1="612.2363" x2="858.9995" y1="295.3906" y2="295.3906"/><text fill="#000000" font-family="sans-serif" font-size="13" lengthAdjust="spacing" textLength="228.7632" x="619.2363" y="290.3247">executar(perguntar_humano, args)</text><polygon fill="#181818" points="623.2363,335.6563,613.2363,339.6563,623.2363,343.6563,619.2363,339.6563" style="stroke:#181818;stroke-width:1.0;"/><line style="stroke:#181818;stroke-width:1.0;stroke-dasharray:2.0,2.0;" x1="617.2363" x2="863.9995" y1="339.6563" y2="339.6563"/><text fill="#000000" font-family="sans-serif" font-size="13" lengthAdjust="spacing" textLength="131.0474" x="629.2363" y="319.4575">HITLPausaSolicitada</text><text fill="#000000" font-family="sans-serif" font-size="13" lengthAdjust="spacing" textLength="97.1001" x="629.2363" y="334.5903">(SinalControle)</text><polygon fill="#181818" points="1085.186,379.9219,1095.186,383.9219,1085.186,387.9219,1089.186,383.9219" style="stroke:#181818;stroke-width:1.0;"/><line style="stroke:#181818;stroke-width:1.0;" x1="612.2363" x2="1091.186" y1="383.9219" y2="383.9219"/><text fill="#000000" font-family="sans-serif" font-size="13" lengthAdjust="spacing" textLength="116.105" x="619.2363" y="363.7231">grava estado.json</text><text fill="#000000" font-family="sans-serif" font-size="13" lengthAdjust="spacing" textLength="141.5781" x="619.2363" y="378.856">status = pausada_hitl</text><polygon fill="#181818" points="368.7021,409.0547,358.7021,413.0547,368.7021,417.0547,364.7021,413.0547" style="stroke:#181818;stroke-width:1.0;"/><line style="stroke:#181818;stroke-width:1.0;stroke-dasharray:2.0,2.0;" x1="362.7021" x2="611.2363" y1="413.0547" y2="413.0547"/><text fill="#000000" font-family="sans-serif" font-size="13" lengthAdjust="spacing" textLength="219.9019" x="374.7021" y="407.9888">ResultadoExecucao(pausada_hitl)</text><polygon fill="#181818" points="57.5405,438.1875,47.5405,442.1875,57.5405,446.1875,53.5405,442.1875" style="stroke:#181818;stroke-width:1.0;"/><line style="stroke:#181818;stroke-width:1.0;stroke-dasharray:2.0,2.0;" x1="51.5405" x2="356.7021" y1="442.1875" y2="442.1875"/><text fill="#000000" font-family="sans-serif" font-size="13" lengthAdjust="spacing" textLength="287.1616" x="63.5405" y="437.1216">imprime pergunta + comando para retomar</text><path d="M5,455.1875 L5,510.1875 L1140,510.1875 L1140,465.1875 L1130,455.1875 L5,455.1875 " fill="#FEFFDD" style="stroke:#181818;stroke-width:0.5;"/><path d="M1130,455.1875 L1130,465.1875 L1140,465.1875 L1130,455.1875 " fill="#FEFFDD" style="stroke:#181818;stroke-width:0.5;"/><text fill="#000000" font-family="sans-serif" font-size="13" lengthAdjust="spacing" textLength="259.8159" x="437.9131" y="472.2544">Processo termina; sess&#227;o fica em disco.</text><text fill="#000000" font-family="sans-serif" font-size="13" lengthAdjust="spacing" textLength="260.6792" x="437.9131" y="487.3872">Consultor pode responder horas depois,</text><text fill="#000000" font-family="sans-serif" font-size="13" lengthAdjust="spacing" textLength="250.9102" x="437.9131" y="502.52">em outro terminal, em outra m&#225;quina.</text><polygon fill="#181818" points="345.7021,532.7188,355.7021,536.7188,345.7021,540.7188,349.7021,536.7188" style="stroke:#181818;stroke-width:1.0;"/><line style="stroke:#181818;stroke-width:1.0;" x1="46.5405" x2="351.7021" y1="536.7188" y2="536.7188"/><text fill="#000000" font-family="sans-serif" font-size="13" lengthAdjust="spacing" textLength="243.7373" x="53.5405" y="531.6528">./implantacao responder acme &lt;sid&gt;</text><polygon fill="#181818" points="1085.186,561.8516,1095.186,565.8516,1085.186,569.8516,1089.186,565.8516" style="stroke:#181818;stroke-width:1.0;"/><line style="stroke:#181818;stroke-width:1.0;" x1="357.7021" x2="1091.186" y1="565.8516" y2="565.8516"/><text fill="#000000" font-family="sans-serif" font-size="13" lengthAdjust="spacing" textLength="210.9326" x="364.7021" y="560.7856">carrega estado.json + transcript</text><polygon fill="#181818" points="600.2363,590.9844,610.2363,594.9844,600.2363,598.9844,604.2363,594.9844" style="stroke:#181818;stroke-width:1.0;"/><line style="stroke:#181818;stroke-width:1.0;" x1="357.7021" x2="606.2363" y1="594.9844" y2="594.9844"/><text fill="#000000" font-family="sans-serif" font-size="13" lengthAdjust="spacing" textLength="230.5342" x="364.7021" y="589.9185">retomar_agente(resposta_humana)</text><polygon fill="#181818" points="1085.186,620.1172,1095.186,624.1172,1085.186,628.1172,1089.186,624.1172" style="stroke:#181818;stroke-width:1.0;"/><line style="stroke:#181818;stroke-width:1.0;" x1="612.2363" x2="1091.186" y1="624.1172" y2="624.1172"/><text fill="#000000" font-family="sans-serif" font-size="13" lengthAdjust="spacing" textLength="193.1846" x="619.2363" y="619.0513">appenda tool_results_parciais</text><polygon fill="#181818" points="1085.186,664.3828,1095.186,668.3828,1085.186,672.3828,1089.186,668.3828" style="stroke:#181818;stroke-width:1.0;"/><line style="stroke:#181818;stroke-width:1.0;" x1="612.2363" x2="1091.186" y1="668.3828" y2="668.3828"/><text fill="#000000" font-family="sans-serif" font-size="13" lengthAdjust="spacing" textLength="209.8789" x="619.2363" y="648.1841">appenda tool_result da resposta</text><text fill="#000000" font-family="sans-serif" font-size="13" lengthAdjust="spacing" textLength="119.2026" x="619.2363" y="663.3169">no tool_call_id_hitl</text><polygon fill="#181818" points="1085.186,693.5156,1095.186,697.5156,1085.186,701.5156,1089.186,697.5156" style="stroke:#181818;stroke-width:1.0;"/><line style="stroke:#181818;stroke-width:1.0;" x1="612.2363" x2="1091.186" y1="697.5156" y2="697.5156"/><text fill="#000000" font-family="sans-serif" font-size="13" lengthAdjust="spacing" textLength="263.7959" x="619.2363" y="692.4497">stubs para tool_call_ids_nao_executados</text><polygon fill="#181818" points="1085.186,737.7813,1095.186,741.7813,1085.186,745.7813,1089.186,741.7813" style="stroke:#181818;stroke-width:1.0;"/><line style="stroke:#181818;stroke-width:1.0;" x1="612.2363" x2="1091.186" y1="741.7813" y2="741.7813"/><text fill="#000000" font-family="sans-serif" font-size="13" lengthAdjust="spacing" textLength="114.9878" x="619.2363" y="721.5825">limpa estado.json</text><text fill="#000000" font-family="sans-serif" font-size="13" lengthAdjust="spacing" textLength="91.438" x="619.2363" y="736.7153">status = ativa</text><polygon fill="#181818" points="969.7051,782.0469,979.7051,786.0469,969.7051,790.0469,973.7051,786.0469" style="stroke:#181818;stroke-width:1.0;"/><line style="stroke:#181818;stroke-width:1.0;" x1="612.2363" x2="975.7051" y1="786.0469" y2="786.0469"/><text fill="#000000" font-family="sans-serif" font-size="13" lengthAdjust="spacing" textLength="157.5679" x="619.2363" y="765.8481">chat.completions.create</text><text fill="#000000" font-family="sans-serif" font-size="13" lengthAdjust="spacing" textLength="110.627" x="619.2363" y="780.981">(continua o loop)</text><polygon fill="#181818" points="623.2363,811.1797,613.2363,815.1797,623.2363,819.1797,619.2363,815.1797" style="stroke:#181818;stroke-width:1.0;"/><line style="stroke:#181818;stroke-width:1.0;stroke-dasharray:2.0,2.0;" x1="617.2363" x2="980.7051" y1="815.1797" y2="815.1797"/><text fill="#000000" font-family="sans-serif" font-size="13" lengthAdjust="spacing" textLength="176.6616" x="629.2363" y="810.1138">... (at&#233; finish_reason=stop)</text><polygon fill="#181818" points="368.7021,840.3125,358.7021,844.3125,368.7021,848.3125,364.7021,844.3125" style="stroke:#181818;stroke-width:1.0;"/><line style="stroke:#181818;stroke-width:1.0;stroke-dasharray:2.0,2.0;" x1="362.7021" x2="611.2363" y1="844.3125" y2="844.3125"/><text fill="#000000" font-family="sans-serif" font-size="13" lengthAdjust="spacing" textLength="199.5957" x="374.7021" y="839.2466">ResultadoExecucao(concluida)</text><polygon fill="#181818" points="57.5405,869.4453,47.5405,873.4453,57.5405,877.4453,53.5405,873.4453" style="stroke:#181818;stroke-width:1.0;"/><line style="stroke:#181818;stroke-width:1.0;stroke-dasharray:2.0,2.0;" x1="51.5405" x2="356.7021" y1="873.4453" y2="873.4453"/><text fill="#000000" font-family="sans-serif" font-size="13" lengthAdjust="spacing" textLength="146.5737" x="63.5405" y="868.3794">imprime resposta final</text><!--SRC=[ZPDDJjn048NtFaM9rQ20sHDWWn85QI8XO8ba5TtDJ4VjBgUhFMAPG-G2KLPPv1HpavmahyVZ-PC8MTbolQwgVkzpzZau-XZw5w5FDmzJ-lFjEtNSAvEZvBAqR9bOTVaxcYIHgufDbaJN4hKFvOsLhZLK7QViZUyuPZgwdjuShGhJc_t2NH-ZIwiQNWzgRkOr9taG2Jf8t6nVSfjauQrBD9r-NYdmh2ndVc9rTAHELPoUNNXxTRQgt-DBLM4_Ehqgsz0vrMU-xGBQiM6XbZl7k8HfNLNga64noDoBCttcrF3CnUmcTLqVLwK4HUaAYKcUgSnS_fInX8LAPSwvDe8vBdiuLPlaEBkgL4yt8p8ksXWEGMdYemarTIxD-bYcplkMesmcmecTdIQ7kXFYD5Ee8TlsBu7UbYpl9S32Z2WVu-JUHmw83qu7TtYbMU85ebTefVwY4XyZtdElT3bWORcPWvdXsCRJErTWm9aFPKFuEjaL7m_E5ZM2E2VudtphDhUbTmIlE5h1ZCHhxb9LHScEP86ySV1a29C849WID6MNMbpc_PW1FNk3vLkoNetKa6ufxSGMeBMJMFYPIm8TrdNYzGH2798UZemzCMtzYQbT_lZQurjTkMYfxFHFehP32bHqeO1nH6i4XrDoipsVuG5cHGLJNTudSMt72EAgFmuEqVDXWjnrM9C7kD8g5srWg_7izMqjMQPnmcECieMqyNOd-aqFpVsJ3hdjIhM9BCqQM2k7amCSUuqppdx1__K_WMO3a7ticOI2I7Tyy8lXhwK9v-Kli16zpd5BnhHBpKNx5iHeRaBlBRz6yEXKwSwX-Wi0]--></g></svg>